<mxfile host="app.diagrams.net" agent="Mozilla/5.0 (X11; Linux x86_64) AppleWebKit/537.36 (KHTML, like Gecko) Chrome/135.0.0.0 Safari/537.36" version="26.2.14">
  <diagram name="Page-1" id="TDidAuQqHh3f5PGB4wrc">
    <mxGraphModel dx="1181" dy="661" grid="1" gridSize="10" guides="1" tooltips="1" connect="1" arrows="1" fold="1" page="1" pageScale="1" pageWidth="827" pageHeight="1169" math="0" shadow="0">
      <root>
        <mxCell id="0" />
        <mxCell id="1" parent="0" />
        <mxCell id="ILAVkWkf9HV7iu5l0y_--1" value="Admin" style="shape=umlActor;verticalLabelPosition=bottom;verticalAlign=top;html=1;outlineConnect=0;" vertex="1" parent="1">
          <mxGeometry x="90" y="100" width="30" height="60" as="geometry" />
        </mxCell>
        <mxCell id="ILAVkWkf9HV7iu5l0y_--2" value="Ticketing System" style="rounded=0;whiteSpace=wrap;html=1;" vertex="1" parent="1">
          <mxGeometry x="240" y="100" width="120" height="60" as="geometry" />
        </mxCell>
        <mxCell id="ILAVkWkf9HV7iu5l0y_--3" value="Database" style="rounded=0;whiteSpace=wrap;html=1;" vertex="1" parent="1">
          <mxGeometry x="480" y="100" width="120" height="60" as="geometry" />
        </mxCell>
        <mxCell id="ILAVkWkf9HV7iu5l0y_--4" value="" style="endArrow=none;dashed=1;html=1;rounded=0;" edge="1" parent="1" source="ILAVkWkf9HV7iu5l0y_--17" target="ILAVkWkf9HV7iu5l0y_--1">
          <mxGeometry width="50" height="50" relative="1" as="geometry">
            <mxPoint x="105" y="440" as="sourcePoint" />
            <mxPoint x="120" y="200" as="targetPoint" />
          </mxGeometry>
        </mxCell>
        <mxCell id="ILAVkWkf9HV7iu5l0y_--5" value="" style="endArrow=none;dashed=1;html=1;rounded=0;" edge="1" parent="1" source="ILAVkWkf9HV7iu5l0y_--19" target="ILAVkWkf9HV7iu5l0y_--3">
          <mxGeometry width="50" height="50" relative="1" as="geometry">
            <mxPoint x="540" y="440" as="sourcePoint" />
            <mxPoint x="430" y="360" as="targetPoint" />
          </mxGeometry>
        </mxCell>
        <mxCell id="ILAVkWkf9HV7iu5l0y_--6" value="" style="endArrow=none;dashed=1;html=1;rounded=0;" edge="1" parent="1" source="ILAVkWkf9HV7iu5l0y_--15" target="ILAVkWkf9HV7iu5l0y_--2">
          <mxGeometry width="50" height="50" relative="1" as="geometry">
            <mxPoint x="300" y="440" as="sourcePoint" />
            <mxPoint x="430" y="360" as="targetPoint" />
          </mxGeometry>
        </mxCell>
        <mxCell id="ILAVkWkf9HV7iu5l0y_--16" value="" style="endArrow=none;dashed=1;html=1;rounded=0;" edge="1" parent="1" target="ILAVkWkf9HV7iu5l0y_--15">
          <mxGeometry width="50" height="50" relative="1" as="geometry">
            <mxPoint x="300" y="440" as="sourcePoint" />
            <mxPoint x="300" y="160" as="targetPoint" />
          </mxGeometry>
        </mxCell>
        <mxCell id="ILAVkWkf9HV7iu5l0y_--15" value="" style="rounded=0;whiteSpace=wrap;html=1;" vertex="1" parent="1">
          <mxGeometry x="295" y="190" width="10" height="80" as="geometry" />
        </mxCell>
        <mxCell id="ILAVkWkf9HV7iu5l0y_--18" value="" style="endArrow=none;dashed=1;html=1;rounded=0;" edge="1" parent="1" target="ILAVkWkf9HV7iu5l0y_--17">
          <mxGeometry width="50" height="50" relative="1" as="geometry">
            <mxPoint x="105" y="440" as="sourcePoint" />
            <mxPoint x="105" y="160" as="targetPoint" />
          </mxGeometry>
        </mxCell>
        <mxCell id="ILAVkWkf9HV7iu5l0y_--17" value="" style="rounded=0;whiteSpace=wrap;html=1;" vertex="1" parent="1">
          <mxGeometry x="100" y="190" width="10" height="20" as="geometry" />
        </mxCell>
        <mxCell id="ILAVkWkf9HV7iu5l0y_--20" value="" style="endArrow=none;dashed=1;html=1;rounded=0;" edge="1" parent="1" target="ILAVkWkf9HV7iu5l0y_--19">
          <mxGeometry width="50" height="50" relative="1" as="geometry">
            <mxPoint x="540" y="440" as="sourcePoint" />
            <mxPoint x="540" y="160" as="targetPoint" />
          </mxGeometry>
        </mxCell>
        <mxCell id="ILAVkWkf9HV7iu5l0y_--19" value="" style="rounded=0;whiteSpace=wrap;html=1;" vertex="1" parent="1">
          <mxGeometry x="535" y="200" width="10" height="50" as="geometry" />
        </mxCell>
        <mxCell id="ILAVkWkf9HV7iu5l0y_--21" value="" style="endArrow=classic;html=1;rounded=0;" edge="1" parent="1">
          <mxGeometry width="50" height="50" relative="1" as="geometry">
            <mxPoint x="120" y="200" as="sourcePoint" />
            <mxPoint x="290" y="200" as="targetPoint" />
          </mxGeometry>
        </mxCell>
        <mxCell id="ILAVkWkf9HV7iu5l0y_--22" value="Define New Train Trip" style="edgeLabel;html=1;align=center;verticalAlign=middle;resizable=0;points=[];" vertex="1" connectable="0" parent="ILAVkWkf9HV7iu5l0y_--21">
          <mxGeometry x="-0.0639" y="1" relative="1" as="geometry">
            <mxPoint as="offset" />
          </mxGeometry>
        </mxCell>
        <mxCell id="ILAVkWkf9HV7iu5l0y_--23" value="" style="endArrow=classic;html=1;rounded=0;" edge="1" parent="1">
          <mxGeometry width="50" height="50" relative="1" as="geometry">
            <mxPoint x="310" y="210" as="sourcePoint" />
            <mxPoint x="520" y="210" as="targetPoint" />
          </mxGeometry>
        </mxCell>
        <mxCell id="ILAVkWkf9HV7iu5l0y_--24" value="Store Trip Details" style="edgeLabel;html=1;align=center;verticalAlign=middle;resizable=0;points=[];" vertex="1" connectable="0" parent="ILAVkWkf9HV7iu5l0y_--23">
          <mxGeometry x="0.0435" y="-2" relative="1" as="geometry">
            <mxPoint as="offset" />
          </mxGeometry>
        </mxCell>
        <mxCell id="ILAVkWkf9HV7iu5l0y_--25" value="" style="endArrow=classic;html=1;rounded=0;dashed=1;" edge="1" parent="1">
          <mxGeometry width="50" height="50" relative="1" as="geometry">
            <mxPoint x="520" y="240" as="sourcePoint" />
            <mxPoint x="310" y="240" as="targetPoint" />
          </mxGeometry>
        </mxCell>
        <mxCell id="ILAVkWkf9HV7iu5l0y_--26" value="Confirm Update Success" style="edgeLabel;html=1;align=center;verticalAlign=middle;resizable=0;points=[];" vertex="1" connectable="0" parent="ILAVkWkf9HV7iu5l0y_--25">
          <mxGeometry x="-0.0414" y="-1" relative="1" as="geometry">
            <mxPoint as="offset" />
          </mxGeometry>
        </mxCell>
        <mxCell id="ILAVkWkf9HV7iu5l0y_--27" value="" style="endArrow=classic;html=1;rounded=0;" edge="1" parent="1">
          <mxGeometry width="50" height="50" relative="1" as="geometry">
            <mxPoint x="290" y="260" as="sourcePoint" />
            <mxPoint x="120" y="260" as="targetPoint" />
          </mxGeometry>
        </mxCell>
        <mxCell id="ILAVkWkf9HV7iu5l0y_--28" value="Display Trip Creation Success" style="edgeLabel;html=1;align=center;verticalAlign=middle;resizable=0;points=[];" vertex="1" connectable="0" parent="ILAVkWkf9HV7iu5l0y_--27">
          <mxGeometry x="0.0339" y="2" relative="1" as="geometry">
            <mxPoint x="8" as="offset" />
          </mxGeometry>
        </mxCell>
      </root>
    </mxGraphModel>
  </diagram>
</mxfile>
